<?xml version="1.0" encoding="utf-8"?>
<!-- Uploaded to: SVG Repo, www.svgrepo.com, Generator: SVG Repo Mixer Tools - https://www.svgrepo.com/svg/285882/megaphone-advertising -->
<svg version="1.1" id="Layer_1" xmlns="http://www.w3.org/2000/svg" xmlns:xlink="http://www.w3.org/1999/xlink"
	 viewBox="0 0 511.998 511.998" xml:space="preserve">
<polygon style="fill:#D7D5D9;" points="86.115,252.801 166.702,252.801 212.447,504.396 86.115,504.396 86.115,310.647 "/>
<g style="opacity:0.14;">
	<polygon style="fill:#3E3B43;" points="166.702,252.801 86.115,252.801 86.115,285.439 172.403,284.159 	"/>
</g>
<path style="fill:#D7D5D9;" d="M101.492,140.565H79.673c-31.661,0-57.565,25.904-57.565,57.565v7.832
	c0,31.661,25.904,57.565,57.565,57.565h88.282c19.544,0,38.498,6.69,53.712,18.958l141.189,113.85V7.604L221.478,121.607
	c-15.214,12.268-34.169,18.958-53.712,18.958h-21.663H101.492z"/>
<rect x="362.86" y="7.604" style="fill:#57545C;" width="59.301" height="388.735"/>
<path style="fill:#D7D5D9;" d="M457.854,144.394c16.903,12.486,32.035,33.267,32.035,57.574c0,37.408-30.326,67.734-67.734,67.734
	V134.234C422.155,134.234,444.099,134.234,457.854,144.394z"/>
<path style="opacity:0.31;fill:#3E3B43;enable-background:new    ;" d="M422.155,241.318v28.384
	c37.408,0,67.734-30.326,67.734-67.734c0-4.711-0.574-9.289-1.614-13.701C481.565,218.614,454.519,241.318,422.155,241.318z"/>
<polygon style="fill:#52A2E7;" points="364.834,7.604 280.215,75.838 280.215,328.1 364.834,396.334 "/>
<path style="opacity:0.36;fill:#3E3B43;enable-background:new    ;" d="M222.203,229.045
	c-15.214-12.268-34.169-18.958-53.712-18.958H80.209c-23.569,0-43.941-14.361-52.817-34.761c-3.047,7.003-4.748,14.713-4.748,22.804
	v7.832c0,31.661,25.904,57.565,57.565,57.565h88.282c19.544,0,38.498,6.69,53.712,18.958l141.189,113.85h59.299v-53.439h-59.299
	L222.203,229.045z"/>
<path style="fill:#D7D5D9;" d="M189.815,383.961c0,0,64.61-12.701,71.113-70.247l-25.599-20.213
	c-4.91,43.45-52.806,53.749-52.806,53.749L189.815,383.961z"/>
<g style="opacity:0.31;">
	<path style="fill:#3E3B43;" d="M260.91,314.311l-25.582-20.811c-1.041,9.21-3.966,16.874-7.923,23.24l26.812,21.413
		C257.509,331.237,259.891,323.333,260.91,314.311z"/>
</g>
<g style="opacity:0.36;">
	<polygon style="fill:#3E3B43;" points="175.29,300.033 85.381,403.331 85.381,504.396 190.523,383.815 	"/>
</g>
<path d="M497.493,201.968c0-26.235-13.318-50.172-35.627-64.032c-3.568-2.217-8.256-1.121-10.471,2.445
	c-2.217,3.568-1.121,8.256,2.445,10.471c17.81,11.067,28.445,30.177,28.445,51.116c0,30.58-22.949,55.902-52.527,59.653V134.233
	V7.604c0-4.2-3.404-7.604-7.604-7.604h-59.298c-0.286,0-0.567,0.019-0.845,0.05c-0.05,0.005-0.098,0.016-0.147,0.022
	c-0.277,0.036-0.548,0.088-0.815,0.153c-0.07,0.017-0.14,0.034-0.21,0.054c-0.632,0.173-1.23,0.425-1.784,0.746
	c-0.06,0.034-0.118,0.071-0.176,0.107c-0.253,0.156-0.499,0.324-0.731,0.508c-0.02,0.016-0.044,0.028-0.064,0.045l-0.058,0.047
	c-0.003,0.002-0.006,0.005-0.009,0.007l-84.615,68.23l-0.001,0.001l-56.695,45.717c-13.814,11.138-31.194,17.273-48.94,17.273
	h-21.663c-4.2,0-7.604,3.404-7.604,7.604c0,4.2,3.404,7.604,7.604,7.604h21.663c21.207,0,41.977-7.33,58.487-20.642l44.382-35.788
	v220.462l-44.193-35.635c-16.159-13.029-36.4-20.309-57.135-20.614c-0.216-0.018-0.434-0.029-0.655-0.029h-0.698H86.114h-6.442
	c-27.549,0-49.96-22.411-49.96-49.96v-7.832c0-27.549,22.411-49.961,49.96-49.961h21.819c4.2,0,7.604-3.404,7.604-7.604
	c0-4.2-3.404-7.604-7.604-7.604H79.673c-35.933,0-65.168,29.235-65.168,65.169v7.832c0,35.933,29.235,65.168,65.168,65.168h6.442
	h76.189l4.976,27.366l-73.561,84.518v-72.365c0-4.2-3.404-7.604-7.604-7.604s-7.604,3.404-7.604,7.604v193.749
	c0,0.075,0.009,0.147,0.011,0.222c0.004,0.134,0.009,0.268,0.02,0.4c0.01,0.126,0.024,0.249,0.042,0.373
	c0.015,0.119,0.032,0.237,0.054,0.355c0.023,0.131,0.051,0.261,0.081,0.389c0.025,0.111,0.054,0.22,0.084,0.329
	c0.036,0.129,0.075,0.255,0.119,0.38c0.038,0.109,0.077,0.218,0.12,0.326c0.047,0.119,0.095,0.236,0.148,0.352
	c0.051,0.112,0.103,0.221,0.159,0.331c0.056,0.107,0.113,0.214,0.173,0.319c0.063,0.111,0.13,0.219,0.199,0.326
	c0.065,0.1,0.132,0.199,0.201,0.296c0.073,0.102,0.148,0.204,0.227,0.303c0.079,0.1,0.161,0.197,0.244,0.293
	c0.077,0.088,0.155,0.175,0.237,0.261c0.098,0.103,0.202,0.202,0.306,0.299c0.051,0.047,0.095,0.097,0.147,0.143
	c0.03,0.027,0.064,0.05,0.095,0.076c0.095,0.081,0.194,0.158,0.292,0.235c0.093,0.072,0.186,0.143,0.281,0.21
	c0.097,0.068,0.197,0.133,0.297,0.196c0.104,0.066,0.209,0.131,0.315,0.192c0.097,0.056,0.197,0.107,0.297,0.159
	c0.115,0.059,0.23,0.115,0.348,0.167c0.099,0.045,0.199,0.087,0.3,0.127c0.123,0.049,0.245,0.093,0.37,0.136
	c0.101,0.034,0.203,0.068,0.305,0.098c0.131,0.039,0.263,0.071,0.395,0.101c0.1,0.023,0.199,0.048,0.3,0.067
	c0.151,0.029,0.303,0.05,0.455,0.07c0.085,0.011,0.169,0.025,0.254,0.033c0.241,0.022,0.484,0.037,0.725,0.037h0.001h0.001h126.331
	c2.255,0,4.393-1.001,5.838-2.731c1.445-1.731,2.047-4.014,1.643-6.232l-20.544-112.981c6.349-1.825,17.425-5.692,28.912-12.896
	c19.369-12.148,32.222-28.974,37.715-49.148l92.004,74.188c0.003,0.002,0.006,0.005,0.009,0.007l0.058,0.047
	c0.014,0.011,0.031,0.019,0.046,0.03c0.319,0.254,0.659,0.485,1.018,0.685c0.012,0.006,0.023,0.014,0.034,0.021
	c0.346,0.192,0.71,0.35,1.086,0.487c0.048,0.017,0.094,0.035,0.141,0.052c0.358,0.122,0.726,0.217,1.106,0.285
	c0.061,0.011,0.121,0.018,0.18,0.027c0.379,0.059,0.765,0.097,1.161,0.097h59.298c4.2,0,7.604-3.404,7.604-7.604V276.924
	C467.743,273.099,497.493,240.943,497.493,201.968z M285.842,79.475l69.411-55.97v356.93l-69.411-55.97V79.475z M227.146,296.67
	c-4.781,24.899-25.99,35.702-37.504,39.794l-11.763-64.694c14.214,1.837,27.791,7.584,39.015,16.633L227.146,296.67z
	 M170.765,317.657l11.974,65.851L93.72,484.3v-78.123L170.765,317.657z M102.976,496.792l83.226-94.233l17.134,94.233H102.976z
	 M220.622,364.018c-9.26,5.877-18.361,9.253-23.976,10.976l-4.262-23.444c5.02-1.653,12.066-4.478,19.31-9.02
	c14.132-8.863,23.778-20.953,28.432-35.393l12.68,10.225C249.551,336.838,238.74,352.521,220.622,364.018z M414.551,388.73h-44.09
	V15.208h44.09v119.025v135.469V388.73z"/>
</svg>